<svg width="245" height="17" viewBox="0 0 245 17" fill="none" xmlns="http://www.w3.org/2000/svg">
<path d="M19.9787 14H18.348L22.0121 3.81818H23.7869L27.451 14H25.8203L22.9418 5.66761H22.8622L19.9787 14ZM20.2521 10.0128H25.5419V11.3054H20.2521V10.0128ZM28.9213 14V3.81818H30.4078V7.60156H30.4973C30.5835 7.44247 30.7078 7.25852 30.8702 7.04972C31.0326 6.84091 31.258 6.65862 31.5463 6.50284C31.8347 6.34375 32.2159 6.2642 32.6898 6.2642C33.3063 6.2642 33.8565 6.41998 34.3404 6.73153C34.8243 7.04309 35.2038 7.49219 35.4789 8.07884C35.7573 8.66548 35.8965 9.37145 35.8965 10.1967C35.8965 11.022 35.7589 11.7296 35.4838 12.3196C35.2087 12.9062 34.8309 13.3587 34.3503 13.6768C33.8697 13.9917 33.3212 14.1491 32.7047 14.1491C32.2407 14.1491 31.8612 14.0713 31.5662 13.9155C31.2746 13.7597 31.0459 13.5774 30.8801 13.3686C30.7144 13.1598 30.5868 12.9742 30.4973 12.8118H30.373V14H28.9213ZM30.378 10.1818C30.378 10.7187 30.4559 11.1894 30.6117 11.5938C30.7675 11.9981 30.9928 12.3146 31.2878 12.5433C31.5828 12.7687 31.9441 12.8814 32.3716 12.8814C32.8158 12.8814 33.187 12.7637 33.4853 12.5284C33.7836 12.2898 34.0089 11.9666 34.1614 11.5589C34.3172 11.1513 34.3951 10.6922 34.3951 10.1818C34.3951 9.67803 34.3188 9.22562 34.1664 8.82457C34.0172 8.42353 33.7918 8.10701 33.4902 7.875C33.1919 7.64299 32.8191 7.52699 32.3716 7.52699C31.9408 7.52699 31.5762 7.63802 31.2779 7.86009C30.9829 8.08215 30.7592 8.39205 30.6067 8.78977C30.4542 9.1875 30.378 9.65151 30.378 10.1818ZM37.5657 14V6.36364H39.0522V14H37.5657ZM38.3164 5.18537C38.0579 5.18537 37.8358 5.09919 37.6502 4.92685C37.4679 4.75118 37.3768 4.54238 37.3768 4.30043C37.3768 4.05516 37.4679 3.84635 37.6502 3.67401C37.8358 3.49834 38.0579 3.41051 38.3164 3.41051C38.5749 3.41051 38.7953 3.49834 38.9776 3.67401C39.1632 3.84635 39.256 4.05516 39.256 4.30043C39.256 4.54238 39.1632 4.75118 38.9776 4.92685C38.7953 5.09919 38.5749 5.18537 38.3164 5.18537ZM41.052 14V6.36364H42.4789V7.60653H42.5733C42.7324 7.18561 42.9926 6.85748 43.3539 6.62216C43.7151 6.38352 44.1477 6.2642 44.6515 6.2642C45.1619 6.2642 45.5894 6.38352 45.9341 6.62216C46.2821 6.8608 46.539 7.18892 46.7047 7.60653H46.7843C46.9666 7.19886 47.2566 6.87405 47.6543 6.6321C48.052 6.38684 48.526 6.2642 49.0762 6.2642C49.7689 6.2642 50.334 6.4813 50.7715 6.91548C51.2123 7.34967 51.4327 8.00426 51.4327 8.87926V14H49.9462V9.01847C49.9462 8.50142 49.8053 8.12689 49.5236 7.89489C49.2419 7.66288 48.9055 7.54688 48.5144 7.54688C48.0305 7.54688 47.6543 7.69602 47.3858 7.99432C47.1174 8.2893 46.9831 8.6688 46.9831 9.13281V14H45.5016V8.92401C45.5016 8.50971 45.3723 8.17661 45.1138 7.92472C44.8553 7.67282 44.5189 7.54688 44.1046 7.54688C43.8229 7.54688 43.5627 7.62145 43.324 7.7706C43.0887 7.91643 42.8981 8.12026 42.7523 8.3821C42.6098 8.64394 42.5385 8.94721 42.5385 9.2919V14H41.052ZM55.6474 14.169C55.1635 14.169 54.726 14.0795 54.3349 13.9006C53.9438 13.7183 53.6339 13.4548 53.4052 13.1101C53.1798 12.7654 53.0671 12.3428 53.0671 11.8423C53.0671 11.4115 53.15 11.0568 53.3157 10.7784C53.4814 10.5 53.7051 10.2796 53.9869 10.1172C54.2686 9.95478 54.5835 9.83215 54.9315 9.74929C55.2795 9.66643 55.6341 9.60346 55.9954 9.56037C56.4528 9.50734 56.824 9.46425 57.109 9.43111C57.3941 9.39465 57.6012 9.33665 57.7305 9.2571C57.8597 9.17756 57.9244 9.0483 57.9244 8.86932V8.83452C57.9244 8.40033 57.8017 8.06392 57.5565 7.82528C57.3145 7.58665 56.9532 7.46733 56.4727 7.46733C55.9722 7.46733 55.5778 7.57836 55.2894 7.80043C55.0044 8.01918 54.8072 8.26278 54.6978 8.53125L53.3008 8.21307C53.4665 7.74905 53.7085 7.37453 54.0266 7.08949C54.3481 6.80114 54.7177 6.59233 55.1353 6.46307C55.5529 6.33049 55.9921 6.2642 56.4528 6.2642C56.7577 6.2642 57.0808 6.30066 57.4222 6.37358C57.7669 6.44318 58.0884 6.57244 58.3867 6.76136C58.6883 6.95028 58.9353 7.22041 59.1275 7.57173C59.3197 7.91974 59.4158 8.37216 59.4158 8.92898V14H57.9641V12.956H57.9045C57.8084 13.1482 57.6642 13.3371 57.4719 13.5227C57.2797 13.7083 57.0328 13.8625 56.7312 13.9851C56.4296 14.1077 56.0683 14.169 55.6474 14.169ZM55.9705 12.9759C56.3815 12.9759 56.7328 12.8946 57.0245 12.7322C57.3195 12.5698 57.5432 12.3577 57.6957 12.0959C57.8514 11.8307 57.9293 11.5473 57.9293 11.2457V10.2614C57.8763 10.3144 57.7736 10.3641 57.6211 10.4105C57.4719 10.4536 57.3013 10.4917 57.109 10.5249C56.9168 10.5547 56.7295 10.5829 56.5472 10.6094C56.3649 10.6326 56.2125 10.6525 56.0898 10.669C55.8015 10.7055 55.538 10.7668 55.2994 10.853C55.064 10.9392 54.8751 11.0634 54.7326 11.2259C54.5934 11.3849 54.5238 11.5971 54.5238 11.8622C54.5238 12.2301 54.6597 12.5085 54.9315 12.6974C55.2032 12.883 55.5496 12.9759 55.9705 12.9759ZM64.687 14.1541C63.9346 14.1541 63.2866 13.9934 62.7431 13.6719C62.2028 13.3471 61.7852 12.8913 61.4902 12.3047C61.1986 11.7147 61.0527 11.0237 61.0527 10.2315C61.0527 9.44934 61.1986 8.75994 61.4902 8.16335C61.7852 7.56676 62.1962 7.10109 62.7232 6.76633C63.2535 6.43158 63.8733 6.2642 64.5826 6.2642C65.0134 6.2642 65.431 6.33546 65.8354 6.47798C66.2398 6.6205 66.6027 6.84422 66.9242 7.14915C67.2457 7.45407 67.4992 7.85014 67.6848 8.33736C67.8704 8.82126 67.9632 9.40956 67.9632 10.1023V10.6293H61.8929V9.51562H66.5066C66.5066 9.12453 66.427 8.77817 66.2679 8.47656C66.1088 8.17164 65.8851 7.93134 65.5968 7.75568C65.3117 7.58002 64.977 7.49219 64.5925 7.49219C64.1749 7.49219 63.8103 7.59493 63.4988 7.80043C63.1905 8.0026 62.9519 8.26776 62.7828 8.59588C62.6171 8.92069 62.5343 9.27367 62.5343 9.65483V10.5249C62.5343 11.0353 62.6238 11.4695 62.8027 11.8274C62.985 12.1854 63.2386 12.4588 63.5634 12.6477C63.8882 12.8333 64.2677 12.9261 64.7019 12.9261C64.9836 12.9261 65.2405 12.8864 65.4725 12.8068C65.7045 12.724 65.905 12.6013 66.074 12.4389C66.2431 12.2765 66.3723 12.076 66.4618 11.8374L67.8688 12.0909C67.7561 12.5052 67.5539 12.8681 67.2623 13.1797C66.9739 13.4879 66.611 13.7282 66.1735 13.9006C65.7393 14.0696 65.2438 14.1541 64.687 14.1541ZM71.0991 3.81818V14H69.6126V3.81818H71.0991ZM76.9618 10.6989H78.4732L79.5371 12.0859L80.0392 12.7024L81.7346 14.9148H80.1635L79.03 13.4382L78.6422 12.9013L76.9618 10.6989ZM82.0627 8.90909C82.0627 9.99621 81.8638 10.9309 81.4661 11.7131C81.0684 12.492 80.5231 13.0919 79.8304 13.5128C79.141 13.9304 78.3572 14.1392 77.4789 14.1392C76.5972 14.1392 75.8101 13.9304 75.1174 13.5128C74.428 13.0919 73.8844 12.4903 73.4867 11.7081C73.089 10.9259 72.8901 9.9929 72.8901 8.90909C72.8901 7.82197 73.089 6.88897 73.4867 6.11008C73.8844 5.32789 74.428 4.72798 75.1174 4.31037C75.8101 3.88944 76.5972 3.67898 77.4789 3.67898C78.3572 3.67898 79.141 3.88944 79.8304 4.31037C80.5231 4.72798 81.0684 5.32789 81.4661 6.11008C81.8638 6.88897 82.0627 7.82197 82.0627 8.90909ZM80.5414 8.90909C80.5414 8.08049 80.4071 7.38281 80.1387 6.81605C79.8735 6.24598 79.5089 5.8151 79.0449 5.52344C78.5842 5.22846 78.0622 5.08097 77.4789 5.08097C76.8922 5.08097 76.3685 5.22846 75.9078 5.52344C75.4471 5.8151 75.0826 6.24598 74.8141 6.81605C74.5489 7.38281 74.4164 8.08049 74.4164 8.90909C74.4164 9.73769 74.5489 10.437 74.8141 11.0071C75.0826 11.5739 75.4471 12.0047 75.9078 12.2997C76.3685 12.5914 76.8922 12.7372 77.4789 12.7372C78.0622 12.7372 78.5842 12.5914 79.0449 12.2997C79.5089 12.0047 79.8735 11.5739 80.1387 11.0071C80.4071 10.437 80.5414 9.73769 80.5414 8.90909ZM83.978 3.81818H85.8423L89.0838 11.733H89.2031L92.4446 3.81818H94.3089V14H92.8473V6.6321H92.7528L89.75 13.9851H88.5369L85.5341 6.62713H85.4396V14H83.978V3.81818ZM131.991 14.169C131.507 14.169 131.07 14.0795 130.679 13.9006C130.288 13.7183 129.978 13.4548 129.749 13.1101C129.524 12.7654 129.411 12.3428 129.411 11.8423C129.411 11.4115 129.494 11.0568 129.659 10.7784C129.825 10.5 130.049 10.2796 130.331 10.1172C130.612 9.95478 130.927 9.83215 131.275 9.74929C131.623 9.66643 131.978 9.60346 132.339 9.56037C132.797 9.50734 133.168 9.46425 133.453 9.43111C133.738 9.39465 133.945 9.33665 134.074 9.2571C134.203 9.17756 134.268 9.0483 134.268 8.86932V8.83452C134.268 8.40033 134.145 8.06392 133.9 7.82528C133.658 7.58665 133.297 7.46733 132.816 7.46733C132.316 7.46733 131.922 7.57836 131.633 7.80043C131.348 8.01918 131.151 8.26278 131.042 8.53125L129.645 8.21307C129.81 7.74905 130.052 7.37453 130.37 7.08949C130.692 6.80114 131.061 6.59233 131.479 6.46307C131.897 6.33049 132.336 6.2642 132.797 6.2642C133.101 6.2642 133.425 6.30066 133.766 6.37358C134.111 6.44318 134.432 6.57244 134.73 6.76136C135.032 6.95028 135.279 7.22041 135.471 7.57173C135.663 7.91974 135.76 8.37216 135.76 8.92898V14H134.308V12.956H134.248C134.152 13.1482 134.008 13.3371 133.816 13.5227C133.623 13.7083 133.377 13.8625 133.075 13.9851C132.773 14.1077 132.412 14.169 131.991 14.169ZM132.314 12.9759C132.725 12.9759 133.077 12.8946 133.368 12.7322C133.663 12.5698 133.887 12.3577 134.039 12.0959C134.195 11.8307 134.273 11.5473 134.273 11.2457V10.2614C134.22 10.3144 134.117 10.3641 133.965 10.4105C133.816 10.4536 133.645 10.4917 133.453 10.5249C133.261 10.5547 133.073 10.5829 132.891 10.6094C132.709 10.6326 132.556 10.6525 132.434 10.669C132.145 10.7055 131.882 10.7668 131.643 10.853C131.408 10.9392 131.219 11.0634 131.076 11.2259C130.937 11.3849 130.868 11.5971 130.868 11.8622C130.868 12.2301 131.003 12.5085 131.275 12.6974C131.547 12.883 131.893 12.9759 132.314 12.9759ZM137.859 14V3.81818H139.345V7.60156H139.435C139.521 7.44247 139.645 7.25852 139.808 7.04972C139.97 6.84091 140.195 6.65862 140.484 6.50284C140.772 6.34375 141.153 6.2642 141.627 6.2642C142.244 6.2642 142.794 6.41998 143.278 6.73153C143.762 7.04309 144.141 7.49219 144.416 8.07884C144.695 8.66548 144.834 9.37145 144.834 10.1967C144.834 11.022 144.696 11.7296 144.421 12.3196C144.146 12.9062 143.768 13.3587 143.288 13.6768C142.807 13.9917 142.259 14.1491 141.642 14.1491C141.178 14.1491 140.799 14.0713 140.504 13.9155C140.212 13.7597 139.983 13.5774 139.818 13.3686C139.652 13.1598 139.524 12.9742 139.435 12.8118H139.311V14H137.859ZM139.316 10.1818C139.316 10.7187 139.393 11.1894 139.549 11.5938C139.705 11.9981 139.93 12.3146 140.225 12.5433C140.52 12.7687 140.882 12.8814 141.309 12.8814C141.753 12.8814 142.124 12.7637 142.423 12.5284C142.721 12.2898 142.946 11.9666 143.099 11.5589C143.255 11.1513 143.333 10.6922 143.333 10.1818C143.333 9.67803 143.256 9.22562 143.104 8.82457C142.955 8.42353 142.729 8.10701 142.428 7.875C142.129 7.64299 141.757 7.52699 141.309 7.52699C140.878 7.52699 140.514 7.63802 140.215 7.86009C139.92 8.08215 139.697 8.39205 139.544 8.78977C139.392 9.1875 139.316 9.65151 139.316 10.1818ZM146.503 14V6.36364H147.99V14H146.503ZM147.254 5.18537C146.995 5.18537 146.773 5.09919 146.588 4.92685C146.405 4.75118 146.314 4.54238 146.314 4.30043C146.314 4.05516 146.405 3.84635 146.588 3.67401C146.773 3.49834 146.995 3.41051 147.254 3.41051C147.512 3.41051 147.733 3.49834 147.915 3.67401C148.101 3.84635 148.194 4.05516 148.194 4.30043C148.194 4.54238 148.101 4.75118 147.915 4.92685C147.733 5.09919 147.512 5.18537 147.254 5.18537ZM149.99 14V6.36364H151.416V7.60653H151.511C151.67 7.18561 151.93 6.85748 152.291 6.62216C152.653 6.38352 153.085 6.2642 153.589 6.2642C154.099 6.2642 154.527 6.38352 154.872 6.62216C155.22 6.8608 155.477 7.18892 155.642 7.60653H155.722C155.904 7.19886 156.194 6.87405 156.592 6.6321C156.99 6.38684 157.463 6.2642 158.014 6.2642C158.706 6.2642 159.271 6.4813 159.709 6.91548C160.15 7.34967 160.37 8.00426 160.37 8.87926V14H158.884V9.01847C158.884 8.50142 158.743 8.12689 158.461 7.89489C158.179 7.66288 157.843 7.54688 157.452 7.54688C156.968 7.54688 156.592 7.69602 156.323 7.99432C156.055 8.2893 155.921 8.6688 155.921 9.13281V14H154.439V8.92401C154.439 8.50971 154.31 8.17661 154.051 7.92472C153.793 7.67282 153.456 7.54688 153.042 7.54688C152.76 7.54688 152.5 7.62145 152.262 7.7706C152.026 7.91643 151.836 8.12026 151.69 8.3821C151.547 8.64394 151.476 8.94721 151.476 9.2919V14H149.99ZM164.585 14.169C164.101 14.169 163.663 14.0795 163.272 13.9006C162.881 13.7183 162.571 13.4548 162.343 13.1101C162.117 12.7654 162.005 12.3428 162.005 11.8423C162.005 11.4115 162.087 11.0568 162.253 10.7784C162.419 10.5 162.643 10.2796 162.924 10.1172C163.206 9.95478 163.521 9.83215 163.869 9.74929C164.217 9.66643 164.572 9.60346 164.933 9.56037C165.39 9.50734 165.761 9.46425 166.047 9.43111C166.332 9.39465 166.539 9.33665 166.668 9.2571C166.797 9.17756 166.862 9.0483 166.862 8.86932V8.83452C166.862 8.40033 166.739 8.06392 166.494 7.82528C166.252 7.58665 165.891 7.46733 165.41 7.46733C164.91 7.46733 164.515 7.57836 164.227 7.80043C163.942 8.01918 163.745 8.26278 163.635 8.53125L162.238 8.21307C162.404 7.74905 162.646 7.37453 162.964 7.08949C163.286 6.80114 163.655 6.59233 164.073 6.46307C164.49 6.33049 164.93 6.2642 165.39 6.2642C165.695 6.2642 166.018 6.30066 166.36 6.37358C166.704 6.44318 167.026 6.57244 167.324 6.76136C167.626 6.95028 167.873 7.22041 168.065 7.57173C168.257 7.91974 168.353 8.37216 168.353 8.92898V14H166.902V12.956H166.842C166.746 13.1482 166.602 13.3371 166.409 13.5227C166.217 13.7083 165.97 13.8625 165.669 13.9851C165.367 14.1077 165.006 14.169 164.585 14.169ZM164.908 12.9759C165.319 12.9759 165.67 12.8946 165.962 12.7322C166.257 12.5698 166.481 12.3577 166.633 12.0959C166.789 11.8307 166.867 11.5473 166.867 11.2457V10.2614C166.814 10.3144 166.711 10.3641 166.559 10.4105C166.409 10.4536 166.239 10.4917 166.047 10.5249C165.854 10.5547 165.667 10.5829 165.485 10.6094C165.302 10.6326 165.15 10.6525 165.027 10.669C164.739 10.7055 164.475 10.7668 164.237 10.853C164.002 10.9392 163.813 11.0634 163.67 11.2259C163.531 11.3849 163.461 11.5971 163.461 11.8622C163.461 12.2301 163.597 12.5085 163.869 12.6974C164.141 12.883 164.487 12.9759 164.908 12.9759ZM173.624 14.1541C172.872 14.1541 172.224 13.9934 171.681 13.6719C171.14 13.3471 170.723 12.8913 170.428 12.3047C170.136 11.7147 169.99 11.0237 169.99 10.2315C169.99 9.44934 170.136 8.75994 170.428 8.16335C170.723 7.56676 171.134 7.10109 171.661 6.76633C172.191 6.43158 172.811 6.2642 173.52 6.2642C173.951 6.2642 174.369 6.33546 174.773 6.47798C175.177 6.6205 175.54 6.84422 175.862 7.14915C176.183 7.45407 176.437 7.85014 176.622 8.33736C176.808 8.82126 176.901 9.40956 176.901 10.1023V10.6293H170.83V9.51562H175.444C175.444 9.12453 175.365 8.77817 175.205 8.47656C175.046 8.17164 174.823 7.93134 174.534 7.75568C174.249 7.58002 173.914 7.49219 173.53 7.49219C173.112 7.49219 172.748 7.59493 172.436 7.80043C172.128 8.0026 171.889 8.26776 171.72 8.59588C171.555 8.92069 171.472 9.27367 171.472 9.65483V10.5249C171.472 11.0353 171.561 11.4695 171.74 11.8274C171.923 12.1854 172.176 12.4588 172.501 12.6477C172.826 12.8333 173.205 12.9261 173.639 12.9261C173.921 12.9261 174.178 12.8864 174.41 12.8068C174.642 12.724 174.843 12.6013 175.012 12.4389C175.181 12.2765 175.31 12.076 175.399 11.8374L176.806 12.0909C176.694 12.5052 176.491 12.8681 176.2 13.1797C175.911 13.4879 175.548 13.7282 175.111 13.9006C174.677 14.0696 174.181 14.1541 173.624 14.1541ZM180.037 3.81818V14H178.55V3.81818H180.037ZM187.969 14V15.2628H181.501V14H187.969ZM194.11 16.8636V12.8118H194.02C193.931 12.9742 193.802 13.1598 193.633 13.3686C193.467 13.5774 193.238 13.7597 192.947 13.9155C192.655 14.0713 192.277 14.1491 191.813 14.1491C191.197 14.1491 190.646 13.9917 190.162 13.6768C189.682 13.3587 189.304 12.9062 189.029 12.3196C188.757 11.7296 188.621 11.022 188.621 10.1967C188.621 9.37145 188.759 8.66548 189.034 8.07884C189.312 7.49219 189.693 7.04309 190.177 6.73153C190.661 6.41998 191.21 6.2642 191.823 6.2642C192.297 6.2642 192.678 6.34375 192.966 6.50284C193.258 6.65862 193.483 6.84091 193.643 7.04972C193.805 7.25852 193.931 7.44247 194.02 7.60156H194.145V6.36364H195.596V16.8636H194.11ZM192.141 12.8814C192.569 12.8814 192.93 12.7687 193.225 12.5433C193.523 12.3146 193.749 11.9981 193.901 11.5938C194.057 11.1894 194.135 10.7187 194.135 10.1818C194.135 9.65151 194.059 9.1875 193.906 8.78977C193.754 8.39205 193.53 8.08215 193.235 7.86009C192.94 7.63802 192.575 7.52699 192.141 7.52699C191.694 7.52699 191.321 7.64299 191.023 7.875C190.724 8.10701 190.499 8.42353 190.346 8.82457C190.197 9.22562 190.123 9.67803 190.123 10.1818C190.123 10.6922 190.199 11.1513 190.351 11.5589C190.504 11.9666 190.729 12.2898 191.028 12.5284C191.329 12.7637 191.7 12.8814 192.141 12.8814ZM202.432 10.8331V6.36364H203.924V14H202.462V12.6776H202.383C202.207 13.0852 201.925 13.425 201.537 13.6967C201.153 13.9652 200.674 14.0994 200.101 14.0994C199.61 14.0994 199.176 13.9917 198.798 13.7763C198.424 13.5575 198.129 13.2344 197.913 12.8068C197.701 12.3793 197.595 11.8506 197.595 11.2209V6.36364H199.081V11.0419C199.081 11.5623 199.226 11.9766 199.514 12.2848C199.802 12.593 200.177 12.7472 200.638 12.7472C200.916 12.7472 201.193 12.6776 201.468 12.5384C201.746 12.3991 201.977 12.1887 202.159 11.907C202.345 11.6252 202.436 11.2673 202.432 10.8331ZM209.212 14.1541C208.46 14.1541 207.812 13.9934 207.268 13.6719C206.728 13.3471 206.311 12.8913 206.016 12.3047C205.724 11.7147 205.578 11.0237 205.578 10.2315C205.578 9.44934 205.724 8.75994 206.016 8.16335C206.311 7.56676 206.722 7.10109 207.249 6.76633C207.779 6.43158 208.399 6.2642 209.108 6.2642C209.539 6.2642 209.956 6.33546 210.361 6.47798C210.765 6.6205 211.128 6.84422 211.45 7.14915C211.771 7.45407 212.025 7.85014 212.21 8.33736C212.396 8.82126 212.489 9.40956 212.489 10.1023V10.6293H206.418V9.51562H211.032C211.032 9.12453 210.952 8.77817 210.793 8.47656C210.634 8.17164 210.411 7.93134 210.122 7.75568C209.837 7.58002 209.502 7.49219 209.118 7.49219C208.7 7.49219 208.336 7.59493 208.024 7.80043C207.716 8.0026 207.477 8.26776 207.308 8.59588C207.143 8.92069 207.06 9.27367 207.06 9.65483V10.5249C207.06 11.0353 207.149 11.4695 207.328 11.8274C207.51 12.1854 207.764 12.4588 208.089 12.6477C208.414 12.8333 208.793 12.9261 209.227 12.9261C209.509 12.9261 209.766 12.8864 209.998 12.8068C210.23 12.724 210.43 12.6013 210.599 12.4389C210.768 12.2765 210.898 12.076 210.987 11.8374L212.394 12.0909C212.281 12.5052 212.079 12.8681 211.788 13.1797C211.499 13.4879 211.136 13.7282 210.699 13.9006C210.265 14.0696 209.769 14.1541 209.212 14.1541ZM214.138 14V6.36364H215.624V14H214.138ZM214.889 5.18537C214.63 5.18537 214.408 5.09919 214.222 4.92685C214.04 4.75118 213.949 4.54238 213.949 4.30043C213.949 4.05516 214.04 3.84635 214.222 3.67401C214.408 3.49834 214.63 3.41051 214.889 3.41051C215.147 3.41051 215.368 3.49834 215.55 3.67401C215.735 3.84635 215.828 4.05516 215.828 4.30043C215.828 4.54238 215.735 4.75118 215.55 4.92685C215.368 5.09919 215.147 5.18537 214.889 5.18537ZM217.624 14V6.36364H219.061V7.5767H219.141C219.28 7.16572 219.525 6.84257 219.876 6.60724C220.231 6.36861 220.632 6.24929 221.08 6.24929C221.172 6.24929 221.282 6.2526 221.408 6.25923C221.537 6.26586 221.638 6.27415 221.711 6.28409V7.70597C221.651 7.68939 221.545 7.67116 221.393 7.65128C221.24 7.62808 221.088 7.61648 220.935 7.61648C220.584 7.61648 220.271 7.69105 219.996 7.8402C219.724 7.98603 219.509 8.18987 219.349 8.4517C219.19 8.71023 219.111 9.00521 219.111 9.33665V14H217.624ZM225.941 14.1541C225.225 14.1541 224.6 13.9901 224.066 13.6619C223.533 13.3338 223.118 12.8748 222.823 12.2848C222.528 11.6948 222.381 11.0054 222.381 10.2166C222.381 9.42448 222.528 8.73177 222.823 8.13849C223.118 7.54522 223.533 7.08452 224.066 6.75639C224.6 6.42827 225.225 6.2642 225.941 6.2642C226.656 6.2642 227.281 6.42827 227.815 6.75639C228.348 7.08452 228.763 7.54522 229.058 8.13849C229.353 8.73177 229.5 9.42448 229.5 10.2166C229.5 11.0054 229.353 11.6948 229.058 12.2848C228.763 12.8748 228.348 13.3338 227.815 13.6619C227.281 13.9901 226.656 14.1541 225.941 14.1541ZM225.945 12.9062C226.41 12.9062 226.794 12.7836 227.099 12.5384C227.404 12.2931 227.629 11.9666 227.775 11.5589C227.924 11.1513 227.999 10.7022 227.999 10.2116C227.999 9.72443 227.924 9.27699 227.775 8.86932C227.629 8.45833 227.404 8.12855 227.099 7.87997C226.794 7.63139 226.41 7.5071 225.945 7.5071C225.478 7.5071 225.09 7.63139 224.782 7.87997C224.477 8.12855 224.25 8.45833 224.101 8.86932C223.955 9.27699 223.882 9.72443 223.882 10.2116C223.882 10.7022 223.955 11.1513 224.101 11.5589C224.25 11.9666 224.477 12.2931 224.782 12.5384C225.09 12.7836 225.478 12.9062 225.945 12.9062ZM231 14V12.9808L235.137 7.72585V7.65625H231.135V6.36364H236.991V7.44744L233.014 12.6378V12.7074H237.13V14H231ZM242.727 3.81818V14H241.186V5.35938H241.126L238.69 6.95028V5.47869L241.231 3.81818H242.727Z" fill="#302222"/>
<path d="M118.502 4.65419C116.373 4.65419 114.657 6.37125 114.657 8.5C114.657 10.6288 116.373 12.3458 118.502 12.3458C120.63 12.3458 122.347 10.6288 122.347 8.5C122.347 6.37125 120.63 4.65419 118.502 4.65419ZM118.502 11.0003C117.126 11.0003 116.002 9.879 116.002 8.5C116.002 7.121 117.123 5.99972 118.502 5.99972C119.88 5.99972 121.001 7.121 121.001 8.5C121.001 9.879 119.877 11.0003 118.502 11.0003V11.0003ZM123.401 4.49688C123.401 4.99559 122.999 5.3939 122.504 5.3939C122.005 5.3939 121.607 4.99225 121.607 4.49688C121.607 4.00151 122.009 3.59985 122.504 3.59985C122.999 3.59985 123.401 4.00151 123.401 4.49688ZM125.947 5.40729C125.89 4.20568 125.616 3.1413 124.736 2.26436C123.859 1.38743 122.795 1.11296 121.594 1.05272C120.356 0.982428 116.644 0.982428 115.406 1.05272C114.208 1.10962 113.144 1.38408 112.264 2.26102C111.384 3.13796 111.113 4.20233 111.053 5.40394C110.982 6.64236 110.982 10.3543 111.053 11.5927C111.11 12.7943 111.384 13.8587 112.264 14.7356C113.144 15.6126 114.205 15.887 115.406 15.9473C116.644 16.0176 120.356 16.0176 121.594 15.9473C122.795 15.8904 123.859 15.6159 124.736 14.7356C125.613 13.8587 125.887 12.7943 125.947 11.5927C126.018 10.3543 126.018 6.64571 125.947 5.40729V5.40729ZM124.348 12.9215C124.087 13.5775 123.581 14.083 122.922 14.3474C121.935 14.739 119.593 14.6486 118.502 14.6486C117.411 14.6486 115.065 14.7356 114.081 14.3474C113.425 14.0863 112.92 13.5809 112.656 12.9215C112.264 11.9341 112.354 9.59115 112.354 8.5C112.354 7.40885 112.267 5.06253 112.656 4.07849C112.917 3.42246 113.422 2.91705 114.081 2.65263C115.068 2.26102 117.411 2.35139 118.502 2.35139C119.593 2.35139 121.938 2.26436 122.922 2.65263C123.578 2.9137 124.083 3.41911 124.348 4.07849C124.739 5.06588 124.649 7.40885 124.649 8.5C124.649 9.59115 124.739 11.9375 124.348 12.9215Z" fill="#302222"/>
<path d="M5.01714 13.078C5.01714 13.14 4.94758 13.1896 4.85988 13.1896C4.76008 13.1989 4.69052 13.1493 4.69052 13.078C4.69052 13.0159 4.76008 12.9663 4.84778 12.9663C4.93851 12.957 5.01714 13.0066 5.01714 13.078ZM4.07661 12.9384C4.05544 13.0004 4.11593 13.0718 4.20665 13.0904C4.28528 13.1214 4.37601 13.0904 4.39415 13.0284C4.4123 12.9663 4.35484 12.895 4.26411 12.8671C4.18548 12.8454 4.09778 12.8764 4.07661 12.9384ZM5.41331 12.8857C5.3256 12.9074 5.26512 12.9663 5.27419 13.0377C5.28327 13.0997 5.3619 13.14 5.45262 13.1183C5.54032 13.0966 5.60081 13.0377 5.59173 12.9756C5.58266 12.9167 5.50101 12.8764 5.41331 12.8857ZM7.40323 1C3.20867 1 0 4.26608 0 8.56812C0 12.0079 2.11089 14.9514 5.12601 15.9874C5.5131 16.0587 5.64919 15.8137 5.64919 15.6121C5.64919 15.4198 5.64012 14.359 5.64012 13.7076C5.64012 13.7076 3.52319 14.1729 3.07863 12.7833C3.07863 12.7833 2.73387 11.8807 2.2379 11.6481C2.2379 11.6481 1.54536 11.1611 2.28629 11.1704C2.28629 11.1704 3.03931 11.2325 3.45363 11.9707C4.11593 13.1679 5.22581 12.8236 5.65827 12.6189C5.72782 12.1227 5.9244 11.7784 6.14214 11.5737C4.45161 11.3814 2.74597 11.1301 2.74597 8.14629C2.74597 7.29333 2.97581 6.86529 3.45968 6.3194C3.38105 6.11779 3.12399 5.28653 3.53831 4.21335C4.17036 4.01174 5.625 5.05081 5.625 5.05081C6.22984 4.87711 6.88004 4.78716 7.52419 4.78716C8.16835 4.78716 8.81855 4.87711 9.42339 5.05081C9.42339 5.05081 10.878 4.00864 11.5101 4.21335C11.9244 5.28964 11.6673 6.11779 11.5887 6.3194C12.0726 6.8684 12.369 7.29643 12.369 8.14629C12.369 11.1394 10.5877 11.3783 8.89718 11.5737C9.1754 11.8187 9.41129 12.2839 9.41129 13.0128C9.41129 14.0581 9.40222 15.3515 9.40222 15.6059C9.40222 15.8075 9.54133 16.0525 9.9254 15.9812C12.9496 14.9514 15 12.0079 15 8.56812C15 4.26608 11.5978 1 7.40323 1ZM2.93952 11.6977C2.9002 11.7287 2.90927 11.8001 2.96069 11.859C3.00907 11.9086 3.07863 11.9304 3.11794 11.89C3.15726 11.859 3.14819 11.7877 3.09677 11.7287C3.04839 11.6791 2.97883 11.6574 2.93952 11.6977ZM2.6129 11.4465C2.59173 11.4868 2.62198 11.5364 2.68246 11.5675C2.73085 11.5985 2.79133 11.5892 2.8125 11.5457C2.83367 11.5054 2.80343 11.4558 2.74294 11.4248C2.68246 11.4062 2.63407 11.4155 2.6129 11.4465ZM3.59274 12.5507C3.54435 12.591 3.5625 12.6841 3.63206 12.743C3.70161 12.8143 3.78931 12.8236 3.82863 12.774C3.86794 12.7337 3.8498 12.6406 3.78931 12.5817C3.72278 12.5104 3.63206 12.5011 3.59274 12.5507ZM3.24798 12.0947C3.1996 12.1258 3.1996 12.2064 3.24798 12.2777C3.29637 12.3491 3.37802 12.3801 3.41734 12.3491C3.46573 12.3088 3.46573 12.2281 3.41734 12.1568C3.375 12.0854 3.29637 12.0544 3.24798 12.0947Z" fill="#302222"/>
</svg>
