<svg width="113" height="56" viewBox="0 0 113 56" fill="none" xmlns="http://www.w3.org/2000/svg">
<path d="M2.90767 45V11.5455H9.98082V39.1683H24.3232V45H2.90767ZM78.2825 11.5455V45H72.1731L57.6184 23.9439H57.3734V45H50.3002V11.5455H56.5076L70.948 32.5852H71.242V11.5455H78.2825ZM84.1264 45V11.5455H91.1996V26.2962H91.6406L103.68 11.5455H112.158L99.7429 26.5249L112.305 45H103.843L94.679 31.2457L91.1996 35.4929V45H84.1264Z" fill="#302222"/>
<rect x="31" y="13" width="12" height="12.5854" rx="3" stroke="#302222" stroke-width="4"/>
<rect x="31" y="30.4146" width="12" height="12.5854" rx="3" stroke="#302222" stroke-width="4"/>
<path d="M36 19.6219C35.1716 19.6219 34.5 20.2935 34.5 21.1219V35.7073C34.5 36.5357 35.1716 37.2073 36 37.2073H38C38.8284 37.2073 39.5 36.5357 39.5 35.7073V21.1219C39.5 20.2935 38.8284 19.6219 38 19.6219H36Z" fill="#302222" stroke="white"/>
</svg>
