<svg width="15" height="16" viewBox="0 0 15 16" fill="none" xmlns="http://www.w3.org/2000/svg">
<path d="M1.85125 14.5C1.85125 14.8978 2.00972 15.2794 2.2918 15.5607C2.57388 15.842 2.95646 16 3.35538 16H12.3802C12.7791 16 13.1617 15.842 13.4438 15.5607C13.7258 15.2794 13.8843 14.8978 13.8843 14.5V4H1.85125V14.5ZM10.3747 6.5C10.3747 6.36739 10.4275 6.24022 10.5215 6.14645C10.6155 6.05268 10.7431 6 10.876 6C11.009 6 11.1365 6.05268 11.2306 6.14645C11.3246 6.24022 11.3774 6.36739 11.3774 6.5V13.5C11.3774 13.6326 11.3246 13.7598 11.2306 13.8536C11.1365 13.9473 11.009 14 10.876 14C10.7431 14 10.6155 13.9473 10.5215 13.8536C10.4275 13.7598 10.3747 13.6326 10.3747 13.5V6.5ZM7.3664 6.5C7.3664 6.36739 7.41923 6.24022 7.51325 6.14645C7.60728 6.05268 7.73481 6 7.86778 6C8.00075 6 8.12828 6.05268 8.22231 6.14645C8.31633 6.24022 8.36916 6.36739 8.36916 6.5V13.5C8.36916 13.6326 8.31633 13.7598 8.22231 13.8536C8.12828 13.9473 8.00075 14 7.86778 14C7.73481 14 7.60728 13.9473 7.51325 13.8536C7.41923 13.7598 7.3664 13.6326 7.3664 13.5V6.5ZM4.35814 6.5C4.35814 6.36739 4.41096 6.24022 4.50499 6.14645C4.59901 6.05268 4.72654 6 4.85951 6C4.99249 6 5.12002 6.05268 5.21404 6.14645C5.30807 6.24022 5.36089 6.36739 5.36089 6.5V13.5C5.36089 13.6326 5.30807 13.7598 5.21404 13.8536C5.12002 13.9473 4.99249 14 4.85951 14C4.72654 14 4.59901 13.9473 4.50499 13.8536C4.41096 13.7598 4.35814 13.6326 4.35814 13.5V6.5ZM14.3857 1.00001H10.6254L10.3308 0.41563C10.2684 0.290697 10.1723 0.185606 10.0533 0.11218C9.93423 0.0387537 9.79703 -9.46239e-05 9.65707 5.47897e-06H6.07536C5.93571 -0.00052985 5.79875 0.0381736 5.68015 0.111682C5.56154 0.18519 5.4661 0.290529 5.40476 0.41563L5.1102 1.00001H1.34987C1.2169 1.00001 1.08937 1.05268 0.995346 1.14645C0.901319 1.24022 0.848495 1.3674 0.848495 1.5L0.848495 2.5C0.848495 2.63261 0.901319 2.75979 0.995346 2.85356C1.08937 2.94733 1.2169 3 1.34987 3H14.3857C14.5187 3 14.6462 2.94733 14.7402 2.85356C14.8342 2.75979 14.8871 2.63261 14.8871 2.5V1.5C14.8871 1.3674 14.8342 1.24022 14.7402 1.14645C14.6462 1.05268 14.5187 1.00001 14.3857 1.00001Z" fill="#FFF9F9"/>
</svg>
